<svg class="arrow-left" viewBox="0 0 448 512"><path d="M 217.13867,45.728516 C 204.12242,48.009809 198.22314,61.485394 188.49245,68.936094 128.97521,129.07835 68.084842,187.97935 9.5039062,248.98633 c -4.7428693,9.68262 2.4662628,19.95414 10.2444068,25.42776 63.959637,63.31427 126.692627,127.98223 191.507547,190.36716 9.34702,4.63114 19.94112,-2.12806 24.95508,-10.08008 7.63329,-8.14396 19.91063,-14.85225 20.39844,-27.33203 -1.88364,-13.03277 -15.55451,-18.8119 -23.22014,-28.11359 -38.91837,-37.07519 -77.83503,-74.15219 -116.75447,-111.22625 104.19767,-0.57883 208.48278,1.00861 312.625,-0.81446 10.36449,-3.60731 12.52119,-16.29831 10.47656,-25.77734 -0.28374,-11.06599 3.50702,-24.52024 -5.14649,-33.50195 -10.5149,-7.34488 -23.81228,-2.77392 -35.68554,-3.93555 -94.07422,0 -188.14844,0 -282.22266,0 45.77242,-44.4941 93.19632,-87.38695 138.08789,-132.724609 4.84015,-9.240036 -1.62871,-20.178759 -9.72851,-25.154297 -8.34838,-7.545634 -15.06436,-20.672917 -27.90235,-20.392578 z" /></svg>