<svg class="arrow-right" width="100%" height="100%" viewBox="0 0 448 512"><path d="m 228.95703,45.667969 c -13.79377,1.874436 -19.41339,16.701689 -30.19922,23.671875 -8.01565,6.400186 -10.20428,20.229095 -1.46679,26.894531 24.33471,22.802555 48.19713,46.117295 72.44826,69.028435 20.54412,19.57106 41.08675,39.14369 61.63181,58.71375 -104.06159,0.47605 -208.18903,-0.83334 -312.208981,0.67188 -9.9467553,3.06929 -13.2501807,15.52203 -10.9218746,24.74023 0.4894533,11.29687 -3.5028861,24.5985 4.5722656,34.17969 10.429093,8.1188 24.266336,3.20124 36.324219,4.43164 94.060551,0 188.121091,0 282.181641,0 -45.76709,44.47503 -93.15233,87.37406 -138.06055,132.67578 -4.89307,9.25321 1.59076,20.24009 9.70703,25.21094 8.18474,7.54539 14.8103,20.00157 27.22461,20.49609 13.32018,-1.81937 19.47292,-15.55249 29.17311,-23.21195 59.62345,-60.0999 120.43979,-119.12257 179.10619,-180.10641 4.77443,-9.63076 -2.40455,-20.05087 -10.21616,-25.48336 C 364.67773,174.42214 301.89248,110.42683 237.75977,47.855469 c -2.63934,-1.560965 -5.73892,-2.336926 -8.80274,-2.1875 z" /></svg>
